<svg height="512" viewBox="0 0 510.815 510.815" width="512" xmlns="http://www.w3.org/2000/svg"><path d="M508.477 157.353C483.95 82.646 423.842 23.708 348.585.573c-6.536-2.161-14.116 2.022-15.768 8.709l-37.472 139.656a7.501 7.501 0 0014.489 3.888l26.381-98.322c55.558 19.824 99.976 63.416 120.84 118.632l-72.375 26.568c-8.803-15.222-29.13-22.104-45.406-15.235-16.303 6.507-25.475 23.553-22.782 40.265L287.705 235.3l13.045-48.617a7.501 7.501 0 00-14.489-3.888l-14.294 53.273c-2.877 9.405 7.318 18.671 16.381 14.973 64.107-23.53 148.29-54.432 212.563-78.026a12.46 12.46 0 007.566-15.662zM340.121 39.955l6.512-24.272C415.512 37.774 470.136 91.37 493.466 159.77l-22.315 8.191c-22.539-59.763-70.763-106.882-131.03-128.006zm4.716 158.443c8.724-3.656 19.526-.77 25.324 6.634L331.02 219.4c-.217-8.933 5.078-17.514 13.817-21.002z"/><path d="M483.132 210.413a12.503 12.503 0 00-16.476-8.849l-90.678 33.288-45.938 16.861c-.019.007-.037.016-.056.024l-36.459 13.384a7.502 7.502 0 005.17 14.082l30.12-11.057c3.902 6.446 9.668 11.54 16.713 14.636a36.907 36.907 0 0014.874 3.146c4.541 0 9.089-.848 13.446-2.547 16.425-6.383 25.759-23.452 23.111-40.252l34.512-12.67a189.676 189.676 0 013.532 36.364c0 104.215-84.785 189-189 189s-189-84.785-189-189 84.785-189 189-189c12.258 0 24.471 1.202 36.417 3.541l-54.421 202.803a12.458 12.458 0 003.637 12.466 12.458 12.458 0 0012.743 2.508l21.455-7.876a7.502 7.502 0 004.456-9.626c-1.428-3.887-5.736-5.879-9.626-4.456l-16.929 6.215 64.241-239.396c1.928-6.653-2.595-14.092-9.385-15.453-20.309-4.501-41.27-6.37-62.308-5.562-38.91 1.502-77.258 12.391-110.896 31.487a7.501 7.501 0 007.405 13.045c32.013-18.173 67.026-28.112 104.07-29.542 18.868-.725 37.684.844 55.947 4.67l-6.492 24.193a204.66 204.66 0 00-40.315-4.017c-112.486 0-204 91.514-204 204s91.514 204 204 204 204-91.514 204-204a204.56 204.56 0 00-4.273-41.598l23.439-8.605a230.815 230.815 0 015.359 41.362c2.36 61.118-19.224 119.498-60.777 164.387s-98.098 70.909-159.217 73.271c-126.174 4.854-232.794-93.818-237.667-219.995-2.828-73.243 29.983-143.992 87.771-189.254a7.499 7.499 0 001.279-10.529 7.5 7.5 0 00-10.529-1.28c-29.784 23.329-54.081 53.686-70.263 87.79C8.402 197.616.364 236.985 1.879 276.224c2.515 65.127 30.24 125.377 78.069 169.649 45.465 42.084 103.912 64.944 165.52 64.942 3.204 0 6.425-.062 9.645-.187 65.123-2.515 125.371-30.24 169.646-78.068 44.276-47.829 67.274-110.034 64.759-175.156-.614-15.877-2.763-31.687-6.386-46.991zm-114.723 58.99l-.01.004a21.847 21.847 0 01-16.835-.357 21.87 21.87 0 01-8.212-6.24l39.062-14.34c.162 8.958-5.215 17.52-14.005 20.933z"/><path d="M210.003 166.824c18.196 0 33-14.804 33-33s-14.804-33-33-33-33 14.804-33 33 14.804 33 33 33zm0-51c9.925 0 18 8.075 18 18s-8.075 18-18 18-18-8.075-18-18 8.076-18 18-18zM246.003 439.824c18.196 0 33-14.804 33-33s-14.804-33-33-33-33 14.804-33 33 14.804 33 33 33zm0-51c9.925 0 18 8.075 18 18s-8.075 18-18 18-18-8.075-18-18 8.076-18 18-18zM90.003 229.824c0 18.196 14.804 33 33 33s33-14.804 33-33-14.804-33-33-33-33 14.804-33 33zm33-18c9.925 0 18 8.075 18 18s-8.075 18-18 18-18-8.075-18-18 8.076-18 18-18zM143.003 392.824c18.196 0 33-14.804 33-33s-14.804-33-33-33-33 14.804-33 33 14.804 33 33 33zm0-51c9.925 0 18 8.075 18 18s-8.075 18-18 18-18-8.075-18-18 8.076-18 18-18zM365.445 320.89a7.5 7.5 0 006.835-8.11c-.353-4.128-3.993-7.193-8.11-6.835-16.916 1.443-30.166 15.887-30.166 32.88 0 18.196 14.804 33 33 33s33-14.804 33-33c.575-5.437-2.424-11.698-8.706-10.822-5.429.668-7.219 6.041-6.294 10.822 0 9.925-8.075 18-18 18s-18-8.075-18-18c-.001-9.27 7.221-17.148 16.441-17.935zM173.622 182.889c-.358 1.038-8.639 25.625 3.236 42.544 11.816 16.836 38.003 17.979 39.111 18.02a7.5 7.5 0 007.363-5.048c.358-1.039 8.64-25.626-3.235-42.546-11.818-16.835-38.004-17.978-39.112-18.019a7.478 7.478 0 00-7.363 5.049zm12.733 10.643c7.006 1.249 16.833 4.345 21.466 10.944 4.569 6.51 4.056 16.476 2.78 23.285-7.006-1.249-16.833-4.345-21.465-10.945-4.569-6.51-4.055-16.475-2.781-23.284zM290.488 308.441c-19.105-7.63-41.648 5.738-42.599 6.312a7.5 7.5 0 00-3.402 8.254c.269 1.065 6.786 26.179 25.982 33.845 4.222 1.687 8.609 2.347 12.896 2.347 15.114 0 28.962-8.212 29.702-8.658a7.501 7.501 0 003.402-8.254c-.267-1.066-6.785-26.179-25.981-33.846zm-14.455 34.481c-7.386-2.95-12.407-11.573-15.065-17.971 6.549-2.785 16.47-5.569 23.956-2.58 7.387 2.95 12.408 11.573 15.066 17.971-6.549 2.786-16.467 5.571-23.957 2.58zM213.144 300.145a7.5 7.5 0 001.555-8.791c-.489-.983-12.235-24.117-32.628-27.494-20.296-3.36-39.452 14.526-40.258 15.289a7.502 7.502 0 00-1.556 8.791c.49.983 12.235 24.117 32.629 27.494 1.74.288 3.471.42 5.184.42 18.259-.001 34.338-15.012 35.074-15.709zm-56.372-13.836c5.801-4.124 14.894-8.965 22.848-7.65 7.847 1.299 14.599 8.646 18.565 14.326-5.8 4.124-14.899 8.967-22.848 7.65-7.847-1.299-14.598-8.647-18.565-14.326zM351.457 159.66a7.49 7.49 0 003.349-.791c.983-.491 24.105-12.258 27.464-32.655 3.342-20.296-14.564-39.438-15.328-40.243a7.502 7.502 0 00-8.792-1.547c-.983.491-24.104 12.258-27.463 32.655-3.342 20.296 14.563 39.438 15.327 40.243a7.495 7.495 0 005.443 2.338zm-5.969-40.144c1.292-7.848 8.633-14.606 14.308-18.578 4.131 5.795 8.983 14.884 7.674 22.84-1.29 7.838-8.615 14.59-14.288 18.564-3.834-5.343-9.073-14.449-7.694-22.826zM81.003 300.324c0 12.406 10.094 22.5 22.5 22.5s22.5-10.094 22.5-22.5-10.094-22.5-22.5-22.5-22.5 10.094-22.5 22.5zm22.5-7.5c4.136 0 7.5 3.364 7.5 7.5s-3.364 7.5-7.5 7.5-7.5-3.364-7.5-7.5 3.365-7.5 7.5-7.5zM143.503 181.824c12.406 0 22.5-10.093 22.5-22.5s-10.094-22.5-22.5-22.5-22.5 10.093-22.5 22.5 10.094 22.5 22.5 22.5zm0-30c4.136 0 7.5 3.364 7.5 7.5s-3.364 7.5-7.5 7.5-7.5-3.364-7.5-7.5 3.365-7.5 7.5-7.5zM431.003 153.324c0-12.407-10.094-22.5-22.5-22.5s-22.5 10.093-22.5 22.5 10.094 22.5 22.5 22.5 22.5-10.093 22.5-22.5zm-30 0c0-4.136 3.364-7.5 7.5-7.5s7.5 3.364 7.5 7.5-3.364 7.5-7.5 7.5-7.5-3.364-7.5-7.5zM316.503 373.824c-12.406 0-22.5 10.094-22.5 22.5s10.094 22.5 22.5 22.5 22.5-10.094 22.5-22.5-10.093-22.5-22.5-22.5zm0 30c-4.136 0-7.5-3.364-7.5-7.5s3.364-7.5 7.5-7.5 7.5 3.364 7.5 7.5-3.364 7.5-7.5 7.5zM209.503 369.824c12.406 0 22.5-10.094 22.5-22.5s-10.094-22.5-22.5-22.5-22.5 10.094-22.5 22.5 10.094 22.5 22.5 22.5zm0-30c4.136 0 7.5 3.364 7.5 7.5s-3.364 7.5-7.5 7.5-7.5-3.364-7.5-7.5 3.365-7.5 7.5-7.5z"/></svg>